<?xml version="1.0" encoding="utf-8"?>
<!-- Generator: Adobe Illustrator 21.0.0, SVG Export Plug-In . SVG Version: 6.00 Build 0)  -->
<svg version="1.1" id="Layer_1" xmlns="http://www.w3.org/2000/svg" xmlns:xlink="http://www.w3.org/1999/xlink" x="0px" y="0px"
	 viewBox="0 0 1366 768" style="enable-background:new 0 0 1366 768;" xml:space="preserve">
<style type="text/css">
	.st0{fill:#FFFFFF;}
	.st1{fill:#FFFFFF;stroke:#000000;stroke-width:0.5;stroke-miterlimit:10;}
</style>
<path class="st0" d="M693.9,332.8c-12.4,23.7-41.6,33-65.3,20.6l-24.3,7.8c-0.9,0.3-1.9,0-2.6-0.7c-0.7-0.7-0.9-1.7-0.6-2.6
	l7.9-23.3c-4.1-7.2-6.3-15.4-6.3-23.8c0.4-26.1,21.5-47.2,47.6-47.6c23.3-0.4,43.1,15.8,48,37.7h53.9c-1.5-24.8-11.3-46.1-29.2-64.1
	c-19.7-19.7-43.4-29.5-71.3-29.5c-27.8,0-51.6,9.8-71.3,29.5s-29.5,43.4-29.5,71.3c0,27.8,9.8,51.6,29.5,71.3
	c19.7,19.7,43.4,29.5,71.3,29.5c27.8,0,51.6-9.8,71.3-29.5c17.9-18,27.7-39.3,29.2-64.1h-53C698.5,321.4,696.8,327.3,693.9,332.8z"
	/>
<g>
	<g>
		<path class="st1" d="M472.2,453.8c11.9,0,17.9,4.8,17.9,14.4h-11.9c0-3.2-2-4.8-6-4.8s-6,1.6-6,4.8v38.5c0,3.2,2,4.8,6,4.8
			s6-1.6,6-4.8H490c0,9.6-6,14.4-17.9,14.4s-17.9-4.8-17.9-14.4v-38.5C454.3,458.6,460.3,453.8,472.2,453.8z"/>
		<path class="st1" d="M497.2,468.2c0-9.6,6-14.4,17.9-14.4s17.9,4.8,17.9,14.4v38.5c0,9.6-6,14.4-17.9,14.4
			c-11.9,0-17.9-4.8-17.9-14.4L497.2,468.2L497.2,468.2z M515.1,463.4c-4,0-6,1.6-6,4.8v38.5c0,3.2,2,4.8,6,4.8s6-1.6,6-4.8v-38.5
			C521,465,519,463.4,515.1,463.4z"/>
		<path class="st1" d="M558,453.8c11.9,0,17.9,4.8,17.9,14.4v4.8c0,4.1-1.1,7.3-3.2,9.6c2.1,2.3,3.2,5.5,3.2,9.6v28.9H564v-28.9
			c0-3.2-2-4.8-6-4.8h-6v33.7h-11.9v-67.3H558z M563.9,468.2c0-3.2-2-4.8-6-4.8h-6v14.4h6c4,0,6-1.6,6-4.8V468.2z"/>
		<path class="st1" d="M594.9,497.1v24H583v-52.9c0-9.6,6-14.4,17.9-14.4s17.9,4.8,17.9,14.4v52.9h-11.9v-24L594.9,497.1
			L594.9,497.1z M594.9,468.2v19.2h11.9v-19.2c0-3.2-2-4.8-6-4.8S594.9,465,594.9,468.2z"/>
		<path class="st1" d="M643.7,453.8c11.9,0,17.9,4.8,17.9,14.4v4.8c0,4.1-1.1,7.3-3.2,9.6c2.1,2.3,3.2,5.5,3.2,9.6v14.4
			c0,9.6-6,14.4-17.9,14.4h-17.9v-67.3L643.7,453.8L643.7,453.8z M649.7,468.2c0-3.2-2-4.8-6-4.8h-6v14.4h6c4,0,6-1.6,6-4.8V468.2z
			 M637.8,487.5v24h6c4,0,6-1.6,6-4.8v-14.4c0-3.2-2-4.8-6-4.8L637.8,487.5L637.8,487.5z"/>
		<path class="st1" d="M668.7,468.2c0-9.6,6-14.4,17.9-14.4s17.9,4.8,17.9,14.4v38.5c0,9.6-6,14.4-17.9,14.4s-17.9-4.8-17.9-14.4
			V468.2z M686.6,463.4c-4,0-6,1.6-6,4.8v38.5c0,3.2,2,4.8,6,4.8s6-1.6,6-4.8v-38.5C692.6,465,690.6,463.4,686.6,463.4z"/>
		<path class="st1" d="M729.5,453.8c11.9,0,17.9,4.8,17.9,14.4v4.8c0,4.1-1.1,7.3-3.2,9.6c2.1,2.3,3.2,5.5,3.2,9.6v28.9h-11.9v-28.9
			c0-3.2-2-4.8-6-4.8h-6v33.7h-11.9v-67.3H729.5z M735.4,468.2c0-3.2-2-4.8-6-4.8h-6v14.4h6c4,0,6-1.6,6-4.8V468.2z"/>
		<path class="st1" d="M766.4,497.1v24h-11.9v-52.9c0-9.6,6-14.4,17.9-14.4s17.9,4.8,17.9,14.4v52.9h-11.9v-24L766.4,497.1
			L766.4,497.1z M766.4,468.2v19.2h11.9v-19.2c0-3.2-2-4.8-6-4.8S766.4,465,766.4,468.2z"/>
		<path class="st1" d="M821.2,463.4v57.7h-11.9v-57.7h-11.9v-9.6h35.7v9.6L821.2,463.4L821.2,463.4z"/>
		<path class="st1" d="M852.2,511.5H876v9.6h-35.7v-67.3H876v9.6h-23.8v14.4H873v9.6h-20.8V511.5z"/>
	</g>
	<g>
		<path class="st0" d="M701.9,504.5c-0.1,8.7-7.1,15.8-15.8,15.9H686c-2.7,0-5.4-0.7-7.7-2c-0.2-0.1-0.5-0.1-0.7-0.1l-7.6,2.4
			l2.4-7.2c0.1-0.3,0.1-0.6-0.1-0.8c-1.5-2.5-2.3-5.3-2.3-8.2h0.1l0,0h-2c0,3.1,0.8,6.1,2.3,8.8l-5.8,11.5c-0.1,0.3,0,0.7,0.2,1
			s0.6,0.3,1,0.2l11.9-5.7c8.8,4.6,19.6,1.2,24.2-7.6c1.3-2.5,2-5.3,2-8.1h-2V504.5z"/>
		<polygon class="st0" points="670.6,511.9 677.6,519.2 666.1,524.8 670.7,514.7 		"/>
	</g>
	<g>
		<path class="st0" d="M531,504.5c-0.1,8.7-7.1,15.8-15.8,15.9h-0.1c-2.7,0-5.4-0.7-7.7-2c-0.2-0.1-0.5-0.1-0.7-0.1l-7.6,2.4
			l2.4-7.2c0.1-0.3,0.1-0.6-0.1-0.8c-1.5-2.5-2.3-5.3-2.3-8.2h0.1l0,0h-2c0,3.1,0.8,6.1,2.3,8.8l-5.8,11.5c-0.1,0.3,0,0.7,0.2,1
			s0.6,0.3,1,0.2l11.9-5.7c8.8,4.6,19.6,1.2,24.2-7.6c1.3-2.5,2-5.3,2-8.1h-2V504.5z"/>
		<polygon class="st0" points="499.7,511.9 506.7,519.2 495.2,524.8 499.8,514.7 		"/>
	</g>
</g>
</svg>
