<?xml version="1.0" encoding="utf-8"?>
<!-- Generator: Adobe Illustrator 21.0.0, SVG Export Plug-In . SVG Version: 6.00 Build 0)  -->
<svg version="1.1" id="Layer_1" xmlns="http://www.w3.org/2000/svg" xmlns:xlink="http://www.w3.org/1999/xlink" x="0px" y="0px"
	 viewBox="0 0 1366 768" style="enable-background:new 0 0 1366 768;" xml:space="preserve">
<style type="text/css">
	.st0{fill:#FFFFFF;}
	.st1{fill:#FFFFFF;stroke:#000000;stroke-width:0.5;stroke-miterlimit:10;}
</style>
<path class="st0" d="M409.7,432.9c-20.2,38.7-67.9,53.9-106.6,33.6l-39.7,12.7c-1.5,0.5-3.1,0-4.2-1.1c-1.1-1.1-1.5-2.8-1-4.2
	l12.9-38c-6.7-11.8-10.3-25.1-10.3-38.9c0.7-42.6,35.1-77.1,77.7-77.7c38-0.7,70.4,25.8,78.4,61.5h88
	c-2.4-40.5-18.4-75.3-47.7-104.6C425.1,244,386.4,228,340.9,228c-45.4,0-84.2,16-116.4,48.2s-48.2,70.8-48.2,116.4
	c0,45.4,16,84.2,48.2,116.4s70.8,48.2,116.4,48.2c45.4,0,84.2-16,116.4-48.2c29.2-29.4,45.2-64.2,47.7-104.6h-86.5
	C417.3,414.3,414.5,423.9,409.7,432.9z"/>
<g>
	<g>
		<path class="st1" d="M589.8,333.7c19.4,0,29.2,7.8,29.2,23.5h-19.4c0-5.2-3.3-7.8-9.8-7.8s-9.8,2.6-9.8,7.8V420
			c0,5.2,3.3,7.8,9.8,7.8s9.8-2.6,9.8-7.8h19.3c0,15.7-9.8,23.5-29.2,23.5c-19.4,0-29.2-7.8-29.2-23.5v-62.9
			C560.6,341.5,570.4,333.7,589.8,333.7z"/>
		<path class="st1" d="M630.6,357.2c0-15.7,9.8-23.5,29.2-23.5c19.4,0,29.2,7.8,29.2,23.5V420c0,15.7-9.8,23.5-29.2,23.5
			c-19.4,0-29.2-7.8-29.2-23.5V357.2L630.6,357.2z M659.8,349.3c-6.5,0-9.8,2.6-9.8,7.8V420c0,5.2,3.3,7.8,9.8,7.8s9.8-2.6,9.8-7.8
			v-62.9C669.5,351.9,666.2,349.3,659.8,349.3z"/>
		<path class="st1" d="M729.9,333.7c19.4,0,29.2,7.8,29.2,23.5v7.8c0,6.7-1.8,11.9-5.2,15.7c3.4,3.8,5.2,9,5.2,15.7v47.2h-19.4
			v-47.2c0-5.2-3.3-7.8-9.8-7.8h-9.8v55h-19.4V333.7H729.9z M739.5,357.2c0-5.2-3.3-7.8-9.8-7.8h-9.8v23.5h9.8
			c6.5,0,9.8-2.6,9.8-7.8V357.2z"/>
		<path class="st1" d="M790.1,404.3v39.2h-19.4v-86.4c0-15.7,9.8-23.5,29.2-23.5s29.2,7.8,29.2,23.5v86.4h-19.4v-39.2L790.1,404.3
			L790.1,404.3z M790.1,357.2v31.3h19.4v-31.3c0-5.2-3.3-7.8-9.8-7.8S790.1,351.9,790.1,357.2z"/>
		<path class="st1" d="M869.8,333.7c19.4,0,29.2,7.8,29.2,23.5v7.8c0,6.7-1.8,11.9-5.2,15.7c3.4,3.8,5.2,9,5.2,15.7v23.5
			c0,15.7-9.8,23.5-29.2,23.5h-29.2V333.5L869.8,333.7L869.8,333.7z M879.6,357.2c0-5.2-3.3-7.8-9.8-7.8H860v23.5h9.8
			c6.5,0,9.8-2.6,9.8-7.8V357.2z M860.1,388.7v39.2h9.8c6.5,0,9.8-2.6,9.8-7.8v-23.5c0-5.2-3.3-7.8-9.8-7.8L860.1,388.7L860.1,388.7
			z"/>
		<path class="st1" d="M910.6,357.2c0-15.7,9.8-23.5,29.2-23.5s29.2,7.8,29.2,23.5V420c0,15.7-9.8,23.5-29.2,23.5
			s-29.2-7.8-29.2-23.5V357.2z M939.8,349.3c-6.5,0-9.8,2.6-9.8,7.8V420c0,5.2,3.3,7.8,9.8,7.8s9.8-2.6,9.8-7.8v-62.9
			C949.6,351.9,946.3,349.3,939.8,349.3z"/>
		<path class="st1" d="M1009.8,333.7c19.4,0,29.2,7.8,29.2,23.5v7.8c0,6.7-1.8,11.9-5.2,15.7c3.4,3.8,5.2,9,5.2,15.7v47.2h-19.4
			v-47.2c0-5.2-3.3-7.8-9.8-7.8h-9.8v55h-19.4V333.7H1009.8z M1019.5,357.2c0-5.2-3.3-7.8-9.8-7.8h-9.8v23.5h9.8
			c6.5,0,9.8-2.6,9.8-7.8V357.2z"/>
		<path class="st1" d="M1070.1,404.3v39.2h-19.4v-86.4c0-15.7,9.8-23.5,29.2-23.5s29.2,7.8,29.2,23.5v86.4h-19.4v-39.2L1070.1,404.3
			L1070.1,404.3z M1070.1,357.2v31.3h19.4v-31.3c0-5.2-3.3-7.8-9.8-7.8S1070.1,351.9,1070.1,357.2z"/>
		<path class="st1" d="M1159.5,349.3v94.2h-19.4v-94.2h-19.4v-15.7h58.3v15.7L1159.5,349.3L1159.5,349.3z"/>
		<path class="st1" d="M1210.1,427.9h38.9v15.7h-58.3V333.7h58.3v15.7h-38.9v23.5h34v15.7h-34V427.9z"/>
	</g>
	<g>
		<path class="st0" d="M964.8,416.4c-0.2,14.2-11.6,25.8-25.8,26h-0.2c-4.4,0-8.8-1.1-12.6-3.3c-0.3-0.2-0.8-0.2-1.1-0.2l-12.4,3.9
			l3.9-11.8c0.2-0.5,0.2-1-0.2-1.3c-2.4-4.1-3.8-8.7-3.8-13.4h0.2l0,0h-3.3c0,5.1,1.3,10,3.8,14.4l-9.5,18.8c-0.2,0.5,0,1.1,0.3,1.6
			c0.3,0.5,1,0.5,1.6,0.3l19.4-9.3c14.4,7.5,32,2,39.5-12.4c2.1-4.1,3.3-8.7,3.3-13.2h-3.3L964.8,416.4L964.8,416.4z"/>
		<polygon class="st0" points="913.7,428.5 925.1,440.4 906.3,449.6 913.9,433.1 		"/>
	</g>
	<g>
		<path class="st0" d="M685.8,416.4c-0.2,14.2-11.6,25.8-25.8,26h-0.2c-4.4,0-8.8-1.1-12.6-3.3c-0.3-0.2-0.8-0.2-1.1-0.2l-12.4,3.9
			l3.9-11.8c0.2-0.5,0.2-1-0.2-1.3c-2.4-4.1-3.8-8.7-3.8-13.4h0.2l0,0h-3.3c0,5.1,1.3,10,3.8,14.4l-9.5,18.8c-0.2,0.5,0,1.1,0.3,1.6
			c0.3,0.5,1,0.5,1.6,0.3l19.4-9.3c14.4,7.5,32,2,39.5-12.4c2.1-4.1,3.3-8.7,3.3-13.2h-3.3V416.4z"/>
		<polygon class="st0" points="634.7,428.5 646.1,440.4 627.4,449.6 634.9,433.1 		"/>
	</g>
</g>
</svg>
