<?xml version="1.0" encoding="utf-8"?>
<!-- Generator: Adobe Illustrator 21.0.0, SVG Export Plug-In . SVG Version: 6.00 Build 0)  -->
<svg version="1.1" id="Layer_1" xmlns="http://www.w3.org/2000/svg" xmlns:xlink="http://www.w3.org/1999/xlink" x="0px" y="0px"
	 viewBox="0 0 1366 768" style="enable-background:new 0 0 1366 768;" xml:space="preserve">
<style type="text/css">
	.st0{fill:#FFFFFF;}
	.st1{fill:#FFFFFF;stroke:#000000;stroke-width:0.5;stroke-miterlimit:10;}
</style>
<path class="st0" d="M473.1,381.3c-12.4,23.7-41.6,33-65.3,20.6l-24.3,7.8c-0.9,0.3-1.9,0-2.6-0.7c-0.7-0.7-0.9-1.7-0.6-2.6
	l7.9-23.3c-4.1-7.2-6.3-15.4-6.3-23.8c0.4-26.1,21.5-47.2,47.6-47.6c23.3-0.4,43.1,15.8,48,37.7h53.9c-1.5-24.8-11.3-46.1-29.2-64.1
	c-19.7-19.7-43.4-29.5-71.3-29.5c-27.8,0-51.6,9.8-71.3,29.5c-19.7,19.7-29.5,43.4-29.5,71.3c0,27.8,9.8,51.6,29.5,71.3
	c19.7,19.7,43.4,29.5,71.3,29.5c27.8,0,51.6-9.8,71.3-29.5c17.9-18,27.7-39.3,29.2-64.1h-53C477.7,369.9,476,375.8,473.1,381.3z"/>
<g>
	<g>
		<path class="st1" d="M583.4,320.5c11.9,0,17.9,4.8,17.9,14.4h-11.9c0-3.2-2-4.8-6-4.8s-6,1.6-6,4.8v38.5c0,3.2,2,4.8,6,4.8
			s6-1.6,6-4.8h11.8c0,9.6-6,14.4-17.9,14.4s-17.9-4.8-17.9-14.4v-38.5C565.5,325.3,571.5,320.5,583.4,320.5z"/>
		<path class="st1" d="M608.4,334.9c0-9.6,6-14.4,17.9-14.4s17.9,4.8,17.9,14.4v38.5c0,9.6-6,14.4-17.9,14.4
			c-11.9,0-17.9-4.8-17.9-14.4L608.4,334.9L608.4,334.9z M626.3,330.1c-4,0-6,1.6-6,4.8v38.5c0,3.2,2,4.8,6,4.8s6-1.6,6-4.8v-38.5
			C632.2,331.7,630.2,330.1,626.3,330.1z"/>
		<path class="st1" d="M669.2,320.5c11.9,0,17.9,4.8,17.9,14.4v4.8c0,4.1-1.1,7.3-3.2,9.6c2.1,2.3,3.2,5.5,3.2,9.6v28.9h-11.9v-28.9
			c0-3.2-2-4.8-6-4.8h-6v33.7h-11.9v-67.3H669.2z M675.1,334.9c0-3.2-2-4.8-6-4.8h-6v14.4h6c4,0,6-1.6,6-4.8V334.9z"/>
		<path class="st1" d="M706.1,363.8v24h-11.9v-52.9c0-9.6,6-14.4,17.9-14.4s17.9,4.8,17.9,14.4v52.9h-11.9v-24L706.1,363.8
			L706.1,363.8z M706.1,334.9v19.2H718v-19.2c0-3.2-2-4.8-6-4.8S706.1,331.7,706.1,334.9z"/>
		<path class="st1" d="M754.9,320.5c11.9,0,17.9,4.8,17.9,14.4v4.8c0,4.1-1.1,7.3-3.2,9.6c2.1,2.3,3.2,5.5,3.2,9.6v14.4
			c0,9.6-6,14.4-17.9,14.4H737v-67.3L754.9,320.5L754.9,320.5z M760.9,334.9c0-3.2-2-4.8-6-4.8h-6v14.4h6c4,0,6-1.6,6-4.8V334.9z
			 M749,354.2v24h6c4,0,6-1.6,6-4.8V359c0-3.2-2-4.8-6-4.8L749,354.2L749,354.2z"/>
		<path class="st1" d="M779.9,334.9c0-9.6,6-14.4,17.9-14.4s17.9,4.8,17.9,14.4v38.5c0,9.6-6,14.4-17.9,14.4s-17.9-4.8-17.9-14.4
			V334.9z M797.8,330.1c-4,0-6,1.6-6,4.8v38.5c0,3.2,2,4.8,6,4.8s6-1.6,6-4.8v-38.5C803.8,331.7,801.8,330.1,797.8,330.1z"/>
		<path class="st1" d="M840.7,320.5c11.9,0,17.9,4.8,17.9,14.4v4.8c0,4.1-1.1,7.3-3.2,9.6c2.1,2.3,3.2,5.5,3.2,9.6v28.9h-11.9v-28.9
			c0-3.2-2-4.8-6-4.8h-6v33.7h-11.9v-67.3H840.7z M846.6,334.9c0-3.2-2-4.8-6-4.8h-6v14.4h6c4,0,6-1.6,6-4.8V334.9z"/>
		<path class="st1" d="M877.6,363.8v24h-11.9v-52.9c0-9.6,6-14.4,17.9-14.4s17.9,4.8,17.9,14.4v52.9h-11.9v-24L877.6,363.8
			L877.6,363.8z M877.6,334.9v19.2h11.9v-19.2c0-3.2-2-4.8-6-4.8S877.6,331.7,877.6,334.9z"/>
		<path class="st1" d="M932.4,330.1v57.7h-11.9v-57.7h-11.9v-9.6h35.7v9.6L932.4,330.1L932.4,330.1z"/>
		<path class="st1" d="M963.4,378.2h23.8v9.6h-35.7v-67.3h35.7v9.6h-23.8v14.4h20.8v9.6h-20.8V378.2z"/>
	</g>
	<g>
		<path class="st0" d="M813.1,371.2c-0.1,8.7-7.1,15.8-15.8,15.9h-0.1c-2.7,0-5.4-0.7-7.7-2c-0.2-0.1-0.5-0.1-0.7-0.1l-7.6,2.4
			l2.4-7.2c0.1-0.3,0.1-0.6-0.1-0.8c-1.5-2.5-2.3-5.3-2.3-8.2h0.1l0,0h-2c0,3.1,0.8,6.1,2.3,8.8l-5.8,11.5c-0.1,0.3,0,0.7,0.2,1
			c0.2,0.3,0.6,0.3,1,0.2l11.9-5.7c8.8,4.6,19.6,1.2,24.2-7.6c1.3-2.5,2-5.3,2-8.1h-2V371.2L813.1,371.2z"/>
		<polygon class="st0" points="781.8,378.6 788.8,385.9 777.3,391.5 781.9,381.4 		"/>
	</g>
	<g>
		<path class="st0" d="M642.2,371.2c-0.1,8.7-7.1,15.8-15.8,15.9h-0.1c-2.7,0-5.4-0.7-7.7-2c-0.2-0.1-0.5-0.1-0.7-0.1l-7.6,2.4
			l2.4-7.2c0.1-0.3,0.1-0.6-0.1-0.8c-1.5-2.5-2.3-5.3-2.3-8.2h0.1l0,0h-2c0,3.1,0.8,6.1,2.3,8.8l-5.8,11.5c-0.1,0.3,0,0.7,0.2,1
			c0.2,0.3,0.6,0.3,1,0.2L618,387c8.8,4.6,19.6,1.2,24.2-7.6c1.3-2.5,2-5.3,2-8.1h-2V371.2z"/>
		<polygon class="st0" points="610.9,378.6 617.9,385.9 606.4,391.5 611,381.4 		"/>
	</g>
</g>
</svg>
